<?xml version="1.0" encoding="UTF-8"?><svg id="a" xmlns="http://www.w3.org/2000/svg" viewBox="0 0 543.22 92.56"><defs><style>.b{fill:#fff;}</style></defs><path class="b" d="M288.98,57.37v33.87h-15.75V1.31h26.52c7.09,0,12.58,1.73,16.48,5.19,3.89,3.46,5.84,8.38,5.84,14.77v15.36c0,10.15-3.68,16.54-11.03,19.17l14.18,35.45h-17.33l-12.47-33.87h-6.43Zm0-42.54v29.8h9.19c2.89,0,4.97-.63,6.24-1.9,1.27-1.27,1.9-3.35,1.9-6.24v-14.05c0-5.07-2.71-7.61-8.14-7.61h-9.19Z"/><path class="b" d="M333.14,22.45c0-6.83,2.14-12.28,6.43-16.35,4.29-4.07,10.63-6.11,19.04-6.11s14.77,2.04,19.1,6.11c4.33,4.07,6.5,9.52,6.5,16.35v47.66c0,6.83-2.17,12.28-6.5,16.34-4.33,4.07-10.7,6.11-19.1,6.11s-14.75-2.04-19.04-6.11c-4.29-4.07-6.43-9.52-6.43-16.34V22.45Zm35.32,.79c0-5.95-3.26-8.93-9.78-8.93s-9.78,2.98-9.78,8.93v46.08c0,5.95,3.26,8.93,9.78,8.93s9.78-2.98,9.78-8.93V23.24Z"/><path class="b" d="M395.28,22.45c0-6.83,2.14-12.28,6.43-16.35,4.29-4.07,10.63-6.11,19.04-6.11s14.77,2.04,19.1,6.11c4.33,4.07,6.5,9.52,6.5,16.35v47.66c0,6.83-2.17,12.28-6.5,16.34-4.33,4.07-10.7,6.11-19.1,6.11s-14.75-2.04-19.04-6.11c-4.29-4.07-6.43-9.52-6.43-16.34V22.45Zm35.32,.79c0-5.95-3.26-8.93-9.78-8.93s-9.78,2.98-9.78,8.93v46.08c0,5.95,3.26,8.93,9.78,8.93s9.78-2.98,9.78-8.93V23.24Z"/><path class="b" d="M44.73,21.73v7.63c0,8.57-3.3,14.11-9.91,16.61,7.14,2.41,10.71,8.08,10.71,17.01v8.04c0,6.34-1.81,11.32-5.42,14.93-3.62,3.62-9,5.42-16.14,5.42H0V1.38H23.17c7.14,0,12.52,1.81,16.14,5.42,3.62,3.62,5.42,8.59,5.42,14.93ZM22.37,9.68H9.51V41.96h12.86c8.57,0,12.86-4.11,12.86-12.32v-7.63c0-8.21-4.29-12.32-12.86-12.32Zm13.66,61.07v-8.04c0-8.21-4.29-12.32-12.86-12.32H9.51v32.68h13.66c8.57,0,12.86-4.11,12.86-12.32Z"/><path class="b" d="M60.3,1.38h9.51V83.07h27.32v8.3H60.3V1.38Z"/><path class="b" d="M114.02,91.38h-9.51V21.2c0-6.34,1.9-11.45,5.69-15.33C114,1.98,119.65,.04,127.15,.04s13.15,1.94,16.94,5.83c3.8,3.88,5.69,8.99,5.69,15.33V91.38h-9.51V21.46c0-8.57-4.37-12.86-13.12-12.86s-13.12,4.29-13.12,12.86V91.38Z"/><path class="b" d="M164.55,19.72c0-12.68,8.04-19.02,24.11-19.02,5.18,0,10.36,.72,15.54,2.14V11.69c-5.27-1.52-10.54-2.28-15.8-2.28s-8.97,.92-11.12,2.75c-2.14,1.83-3.21,4.53-3.21,8.1v52.37c0,3.48,1.09,6.14,3.28,7.97,2.19,1.83,6.03,2.75,11.52,2.75s10.69-.71,15.6-2.14v8.71c-4.47,1.43-9.73,2.14-15.8,2.14-16.07,0-24.11-6.34-24.11-19.02V19.72Z"/><path class="b" d="M258.32,91.38h-9.51V1.38h9.51V91.38Zm-16.34-44.87l-19.55,44.87h-10.58l19.96-45.13L212.91,1.38h10.31l18.75,45.13Z"/><path class="b" d="M536.84,6.11c-4.25-4.07-10.56-6.11-18.93-6.11-7.48,0-13.33,1.64-17.55,4.9-4.19-3.26-10.01-4.9-17.5-4.9-8.37,0-14.7,2.04-18.99,6.11-4.29,4.08-6.44,9.53-6.44,16.36V91.34h15.77V23.26c0-5.96,3.2-8.94,9.59-8.94s9.59,2.98,9.59,8.94V91.34h15.86V23.26c0-5.96,3.2-8.94,9.59-8.94s9.6,2.98,9.6,8.94V91.34h15.77V22.47c0-6.83-2.12-12.29-6.38-16.36Z"/></svg>