<svg xmlns="http://www.w3.org/2000/svg" width="64.319" height="53.599" viewBox="0 0 64.319 53.599">
  <path id="cama" d="M50.92,12.72H34.84A13.365,13.365,0,0,0,23,19.969,9.283,9.283,0,0,0,17.42,18.08a9.38,9.38,0,0,0-9.38,9.38,9.283,9.283,0,0,0,.941,4.02H5.36V4.68A2.68,2.68,0,0,0,0,4.68V52.92a2.68,2.68,0,0,0,5.36,0V47.56h53.6v5.36a2.68,2.68,0,1,0,5.36,0V26.12a13.416,13.416,0,0,0-13.4-13.4ZM26.8,26.12a8.04,8.04,0,0,1,8.04-8.04H50.92a8.04,8.04,0,0,1,8.04,8.04v5.36H26.8ZM13.4,27.46a4.02,4.02,0,1,1,4.02,4.02,4.02,4.02,0,0,1-4.02-4.02ZM5.36,42.2V36.84h53.6V42.2Z" transform="translate(0 -2)" fill="#ff8702"/>
</svg>
