<svg xmlns="http://www.w3.org/2000/svg" width="64.319" height="64.319" viewBox="0 0 64.319 64.319">
  <g id="camara" transform="translate(0 0)">
    <path id="Trazado_32" data-name="Trazado 32" d="M50.92,10.72H49.558L43.705,3.13A8.1,8.1,0,0,0,37.337,0H26.982a8.1,8.1,0,0,0-6.368,3.13l-5.853,7.59H13.4A13.416,13.416,0,0,0,0,24.12v26.8a13.416,13.416,0,0,0,13.4,13.4H50.92a13.416,13.416,0,0,0,13.4-13.4V24.12a13.416,13.416,0,0,0-13.4-13.4ZM24.859,6.405A2.7,2.7,0,0,1,26.982,5.36H37.337A2.7,2.7,0,0,1,39.46,6.405l3.329,4.315H21.531Zm34.1,44.514a8.04,8.04,0,0,1-8.04,8.04H13.4a8.04,8.04,0,0,1-8.04-8.04V24.12a8.04,8.04,0,0,1,8.04-8.04H50.92a8.04,8.04,0,0,1,8.04,8.04Z" transform="translate(0 0)" fill="#ff8702"/>
    <path id="Trazado_33" data-name="Trazado 33" d="M22.08,8A16.08,16.08,0,1,0,38.16,24.08,16.08,16.08,0,0,0,22.08,8Zm0,26.8A10.72,10.72,0,1,1,32.8,24.08,10.72,10.72,0,0,1,22.08,34.8Z" transform="translate(10.08 13.44)" fill="#ff8702"/>
  </g>
</svg>
