<svg xmlns="http://www.w3.org/2000/svg" width="64.215" height="64.214" viewBox="0 0 64.215 64.214">
  <path id="llamada-telefonica" d="M34.774,2.683A2.68,2.68,0,0,1,37.454,0a26.829,26.829,0,0,1,26.8,26.8,2.68,2.68,0,0,1-5.36,0,21.464,21.464,0,0,0-21.44-21.44,2.68,2.68,0,0,1-2.68-2.68Zm2.68,13.4A10.72,10.72,0,0,1,48.174,26.8a2.68,2.68,0,0,0,5.36,0,16.1,16.1,0,0,0-16.08-16.08,2.68,2.68,0,0,0,0,5.36Zm24.369,28.78a8.308,8.308,0,0,1,0,11.733l-2.439,2.811C37.435,80.421-15.977,27.022,4.713,5l3.082-2.68a8.257,8.257,0,0,1,11.6.107c.083.083,5.049,6.534,5.049,6.534a8.308,8.308,0,0,1-.019,11.476l-3.1,3.9A34.253,34.253,0,0,0,39.893,42.955l3.926-3.122a8.308,8.308,0,0,1,11.473-.016S61.74,44.78,61.823,44.863Zm-3.688,3.9s-6.413-4.934-6.5-5.017a2.948,2.948,0,0,0-4.151,0c-.072.075-5.478,4.382-5.478,4.382a2.68,2.68,0,0,1-2.624.407,40.224,40.224,0,0,1-23.64-23.605,2.68,2.68,0,0,1,.389-2.68s4.307-5.408,4.379-5.478a2.948,2.948,0,0,0,0-4.151c-.083-.08-5.017-6.5-5.017-6.5a2.948,2.948,0,0,0-4.047.1L8.368,8.9c-15.12,18.181,31.165,61.9,47.1,46.843l2.441-2.814a3,3,0,0,0,.228-4.173Z" transform="translate(-0.039 0.002)" fill="#ff8702"/>
</svg>
