<svg xmlns="http://www.w3.org/2000/svg" width="53.894" height="64.325" viewBox="0 0 53.894 64.325">
  <g id="marcador" transform="translate(0 0)">
    <path id="Trazado_17" data-name="Trazado 17" d="M18.72,6A10.72,10.72,0,1,0,29.44,16.72,10.72,10.72,0,0,0,18.72,6Zm0,16.08a5.36,5.36,0,1,1,5.36-5.36A5.36,5.36,0,0,1,18.72,22.08Z" transform="translate(8.227 10.085)" fill="#ff8702"/>
    <path id="Trazado_18" data-name="Trazado 18" d="M28.892,64.323a14.126,14.126,0,0,1-11.553-5.9C7.125,44.338,1.945,33.747,1.945,26.945a26.947,26.947,0,1,1,53.894,0c0,6.8-5.18,17.393-15.394,31.482A14.126,14.126,0,0,1,28.892,64.323Zm0-58.474a21.126,21.126,0,0,0-21.1,21.1C7.79,32.337,12.863,42.3,22.072,55a8.429,8.429,0,0,0,13.641,0c9.208-12.7,14.282-22.662,14.282-28.049a21.126,21.126,0,0,0-21.1-21.1Z" transform="translate(-1.945 0.002)" fill="#ff8702"/>
  </g>
</svg>
