<svg xmlns="http://www.w3.org/2000/svg" width="64.319" height="58.959" viewBox="0 0 64.319 58.959">
  <path id="sobre" d="M50.92,1H13.4A13.416,13.416,0,0,0,0,14.4V46.56a13.416,13.416,0,0,0,13.4,13.4H50.92a13.416,13.416,0,0,0,13.4-13.4V14.4A13.416,13.416,0,0,0,50.92,1ZM13.4,6.36H50.92a8.04,8.04,0,0,1,7.45,5.057L37.847,31.943a8.059,8.059,0,0,1-11.374,0L5.95,11.417A8.04,8.04,0,0,1,13.4,6.36ZM50.92,54.6H13.4a8.04,8.04,0,0,1-8.04-8.04V18.42L22.683,35.732a13.419,13.419,0,0,0,18.953,0L58.959,18.42V46.56A8.04,8.04,0,0,1,50.92,54.6Z" transform="translate(0 -1)" fill="#ff8702"/>
</svg>
