<svg xmlns="http://www.w3.org/2000/svg" width="53.606" height="64.319" viewBox="0 0 53.606 64.319">
  <path id="utensilios_1_" data-name="utensilios (1)" d="M28.8,2.68V18.76A13.424,13.424,0,0,1,18.08,31.892V61.639a2.68,2.68,0,1,1-5.36,0V31.892A13.424,13.424,0,0,1,2,18.76V2.68a2.68,2.68,0,1,1,5.36,0V18.76a8.04,8.04,0,0,0,5.36,7.547V2.68a2.68,2.68,0,1,1,5.36,0V26.307a8.04,8.04,0,0,0,5.36-7.547V2.68a2.68,2.68,0,1,1,5.36,0ZM55.6,26.8A33.875,33.875,0,0,1,42.2,53v8.643a2.68,2.68,0,0,1-5.36,0V5.36A5.092,5.092,0,0,1,39.871.582a5.88,5.88,0,0,1,6.314,1.23A36.11,36.11,0,0,1,55.6,26.8Zm-5.36,0A31.356,31.356,0,0,0,42.2,5.529V45.747A27.6,27.6,0,0,0,50.24,26.8Z" transform="translate(-2)" fill="#ff8702"/>
</svg>
